<svg width="160" height="160" viewBox="0 0 160 160" xmlns="http://www.w3.org/2000/svg">
  <defs>
    <linearGradient id="outerGradient" x1="20" y1="10" x2="140" y2="150" gradientUnits="userSpaceOnUse">
      <stop offset="0" stop-color="#89CCFF"/>
      <stop offset="1" stop-color="#1F7BFF"/>
    </linearGradient>
    <linearGradient id="innerGradient" x1="40" y1="26" x2="136" y2="140" gradientUnits="userSpaceOnUse">
      <stop offset="0" stop-color="#6DB7FF"/>
      <stop offset="1" stop-color="#2573FF"/>
    </linearGradient>
    <linearGradient id="accentGradient" x1="96" y1="96" x2="136" y2="136" gradientUnits="userSpaceOnUse">
      <stop offset="0" stop-color="#6AB6FF"/>
      <stop offset="1" stop-color="#0F5BDA"/>
    </linearGradient>
    <filter id="shadow" x="-10%" y="-10%" width="120%" height="120%" color-interpolation-filters="sRGB">
      <feDropShadow dx="0" dy="8" stdDeviation="12" flood-color="#1E3A8A" flood-opacity=".25"/>
    </filter>
  </defs>
  <g filter="url(#shadow)">
    <rect x="18" y="10" width="124" height="124" rx="28" fill="url(#outerGradient)"/>
    <rect x="34" y="26" width="110" height="110" rx="26" fill="url(#innerGradient)"/>
  </g>
  <g fill="#FFFFFF" opacity="0.9">
    <rect x="58" y="36" width="8" height="18" rx="4"/>
    <rect x="104" y="36" width="8" height="18" rx="4"/>
  </g>
  <rect x="44" y="54" width="96" height="74" rx="16" fill="#F8FAFF" opacity="0.95"/>
  <rect x="44" y="54" width="96" height="74" rx="16" fill="#FFFFFF" opacity="0.6"/>
  <rect x="44" y="54" width="96" height="74" rx="16" stroke="#FFFFFF" stroke-opacity="0.8" stroke-width="6"/>
  <rect x="44" y="72" width="96" height="6" fill="url(#innerGradient)" opacity="0.75"/>
  <g fill="#0F4FD7" fill-opacity="0.2">
    <rect x="58" y="86" width="20" height="18" rx="4"/>
    <rect x="86" y="86" width="20" height="18" rx="4"/>
    <rect x="114" y="86" width="20" height="18" rx="4"/>
    <rect x="58" y="112" width="20" height="18" rx="4"/>
    <rect x="86" y="112" width="20" height="18" rx="4"/>
  </g>
  <rect x="114" y="112" width="20" height="18" rx="4" fill="url(#accentGradient)"/>
  <rect x="44" y="54" width="96" height="74" rx="16" stroke="#FFFFFF" stroke-width="4" opacity="0.35"/>
</svg>
